/* XPM */
static char *red[] = {
/* columns rows colors chars-per-pixel */
"50 50 182 2 ",
"   c #7E1A7C",
".  c #BC163B",
"X  c #BD163B",
"o  c #BE163A",
"O  c #BA163D",
"+  c #B9163E",
"@  c #B9163F",
"#  c #DF1417",
"$  c #D7141F",
"%  c #D7151F",
"&  c #DB141B",
"*  c #DD1419",
"=  c #DE1418",
"-  c #DF1418",
";  c #DE141A",
":  c #D9151D",
">  c #DA151C",
",  c #DA151D",
"<  c #D8151F",
"1  c #E11415",
"2  c #E21414",
"3  c #E01416",
"4  c #E11416",
"5  c #E01417",
"6  c #CF1527",
"7  c #CF1528",
"8  c #CE1529",
"9  c #CC152B",
"0  c #CB162C",
"q  c #CA162D",
"w  c #CB162D",
"e  c #C9162E",
"r  c #CA162E",
"t  c #CC162C",
"y  c #D11525",
"u  c #D01527",
"i  c #C71630",
"p  c #C41633",
"a  c #C21636",
"s  c #9D185B",
"d  c #9E185B",
"f  c #9D185C",
"g  c #9C185E",
"h  c #AF1748",
"j  c #A9174F",
"k  c #A9184F",
"l  c #AD184C",
"z  c #B41743",
"x  c #B51743",
"c  c #B11746",
"v  c #B11747",
"b  c #B21746",
"n  c #B41744",
"m  c #B41745",
"M  c #B81740",
"N  c #B01748",
"B  c #A61852",
"V  c #A61853",
"C  c #A31855",
"Z  c #A11857",
"A  c #A51854",
"S  c #A01858",
"D  c #8F196A",
"F  c #8B196D",
"G  c #8C1A6E",
"H  c #971861",
"J  c #971962",
"K  c #961963",
"L  c #941964",
"P  c #941966",
"I  c #991960",
"U  c #911968",
"Y  c #921968",
"T  c #831A77",
"R  c #841975",
"E  c #851A74",
"W  c #851A75",
"Q  c #861A74",
"!  c #881972",
"~  c #801A79",
"^  c #5B1C9F",
"/  c #5D1C9E",
"(  c #5C1C9F",
")  c #5E1C9E",
"_  c #6F1A8C",
"`  c #6E1B8D",
"'  c #6D1B8E",
"]  c #6C1B8F",
"[  c #751A84",
"{  c #741A86",
"}  c #791A81",
"|  c #7A1A80",
" . c #711A88",
".. c #711A89",
"X. c #721A88",
"o. c #701A8A",
"O. c #671A94",
"+. c #651C95",
"@. c #651C96",
"#. c #6A1B90",
"$. c #681A93",
"%. c #681C93",
"&. c #611C9A",
"*. c #601C9B",
"=. c #611C9B",
"-. c #4D1CAE",
";. c #531CA7",
":. c #571CA4",
">. c #571CA5",
",. c #551CA6",
"<. c #561CA6",
"1. c #5A1CA1",
"2. c #591CA2",
"3. c #581CA3",
"4. c #511CAA",
"5. c #451DB7",
"6. c #4B1CB1",
"7. c #4A1DB1",
"8. c #491DB2",
"9. c #481DB4",
"0. c #491DB4",
"q. c #411DBA",
"w. c #401EBC",
"e. c #1F1FDE",
"r. c #1E1FDF",
"t. c #2F1ECE",
"y. c #2E1ECF",
"u. c #371EC5",
"i. c #351EC7",
"p. c #3D1EC0",
"a. c #391EC4",
"s. c #331EC9",
"d. c #311ECB",
"f. c #321ECA",
"g. c #331ECA",
"h. c #261ED6",
"j. c #271ED6",
"k. c #261FD7",
"l. c #291ED2",
"z. c #291FD3",
"x. c #2B1FD2",
"c. c #2A1ED3",
"v. c #2A1FD3",
"b. c #2D1ED0",
"n. c #2C1ED1",
"m. c #291FD4",
"M. c #281ED5",
"N. c #281FD5",
"B. c #251FD8",
"V. c #241FD9",
"C. c #211FDC",
"Z. c #211FDD",
"A. c #201FDE",
"S. c #1E20DF",
"D. c #0F1FEE",
"F. c #1A1FE2",
"G. c #1B1FE3",
"H. c #1D1FE0",
"J. c #1C1FE1",
"K. c #181FE5",
"L. c #191FE5",
"P. c #111FEB",
"I. c #151FE9",
"U. c #161FE8",
"Y. c #101FED",
"T. c #0A1FF2",
"R. c #0F20EF",
"E. c #1720E6",
"W. c #1C20E2",
"Q. c #1820E6",
"!. c #1520E8",
"~. c #1420E9",
"^. c #1520E9",
"/. c #1120EC",
"(. c #1020ED",
"). c #1120ED",
"_. c #1020EE",
"`. c #0B20F3",
"'. c #0D20F0",
"]. c #0D20F1",
"[. c #0E20F0",
"{. c #0C20F2",
/* pixels */
"`.`.`.`.`.`.`.`.`.`.`.`.`.`.`.`.`.T.`.`.`.`.`.`.`.`.`.`.`.`.`.`.`.`.`.`.`.`.`.`.`.`.`.`.`.`.`.`.`.`.",
"`.`.`.`.`.`.`.`.`.`.`.`.`.`.`.`.`.`.`.`.`.`.`.`.`.`.`.`.`.`.`.`.`.`.`.`.`.`.`.`.`.`.`.`.`.`.`.`.`.`.",
"`.`.`.`.`.`.`.`.`.`.`.`.`.`.`.`.`.`.`.`.[.Q.B.v.b.b.B.A.(.[.`.`.`.`.`.`.`.`.`.`.`.`.`.`.`.`.`.`.`.`.",
"`.`.`.`.`.`.`.`.`.T.`.`.`.`.`.`.`.`.H.5.} U k n X M N S R @.b.(.`.`.`.`.`.`.`.`.`.`.`.`.`.`.`.`.`.`.",
"`.`.`.`.`.`.`.`.`.`.`.`.`.`.Y.B.@.f 2 2 2 2 2 2 2 2 2 2 2 2 2 w } 9.^.`.`.`.`.`.`.`.`.`.`.`.`.`.`.`.",
"`.`.`.`.`.`.`.`.T.T.`.`.`.^.#.j y 2 2 2 2 2 2 2 2 2 2 2 2 2 2 2 = r R w.`.`.`.`.`.`.`.`.`.`.`.`.`.`.",
"`.`.T.`.`.`.`.`.`.`.`.Y.<.N 2 2 2 2 2 2 2 2 2 2 2 2 2 2 2 2 2 2 2 2 2 = { b.`.`.`.`.`.`.`.`.`.`.`.`.",
"`.`.`.`.`.`.`.`.`.`.I.1.7 2 2 2 2 2 2 2 2 2 2 2 2 2 2 2 2 2 2 2 2 2 2 2 % V k.`.`.`.`.`.`.`.`.`.`.`.",
"`.`.`.`.`.`.`.`.[.e.f = 2 2 2 2 2 2 2 2 2 2 2 2 2 2 2 2 2 2 2 2 2 2 2 2 2 2 a / [.`.`.`.`.`.`.`.`.`.",
"`.`.`.`.`.`.`.`.H.R = 2 2 2 2 2 2 2 2 2 2 2 2 2 2 2 2 2 2 2 2 2 2 2 2 2 2 2 2 r w.[.`.`.`.`.`.`.`.`.",
"`.`.T.`.`.`.[.Q.C 2 2 2 2 2 2 2 2 2 2 2 2 2 2 2 2 2 2 2 2 2 2 2 2 2 2 2 2 2 2 2 e 1.[.`.`.`.`.`.`.`.",
"`.`.`.`.`.`.[.@.= 2 2 2 2 2 2 2 2 2 2 2 2 2 2 2 2 2 2 2 2 2 2 2 2 2 2 2 2 2 2 2 2 a W.`.`.`.`.`.`.`.",
"`.`.`.`.`.`.:.7 2 2 2 2 2 2 2 2 2 2 2 2 2 2 2 2 2 2 2 2 2 2 2 2 2 2 2 2 2 2 2 2 2 2 P W.`.`.`.`.`.`.",
"`.`.`.`.`.[.b 2 2 2 2 2 2 2 2 2 2 2 2 2 2 2 2 2 2 2 2 2 2 2 2 2 2 2 2 2 2 2 2 2 2 2 6 / `.`.`.`.`.`.",
"T.`.`.`.(.' 2 2 2 2 2 2 2 2 2 2 2 2 2 2 2 2 2 2 2 2 2 2 2 2 2 2 2 2 2 2 2 2 2 2 2 2 2 7 W.`.`.`.`.`.",
"`.`.`.`.z.l 2 2 2 2 2 2 2 2 2 2 2 2 2 2 2 2 2 2 2 2 2 2 2 2 2 2 2 2 2 2 2 2 2 2 2 2 2 2 1.[.`.`.`.`.",
"`.`.`.`.' : 2 2 2 2 2 2 2 2 2 2 2 2 2 2 2 2 2 2 2 2 2 2 2 2 2 2 2 2 2 2 2 2 2 2 2 2 2 2 b z.`.`.`.`.",
"`.`.`.`.C 2 2 2 2 2 2 2 2 2 2 2 2 2 2 2 2 2 2 2 2 2 2 2 2 2 2 2 2 2 2 2 2 2 2 2 2 2 2 2 7 0.`.`.`.`.",
"`.`.`.B.2 2 2 2 2 2 2 2 2 2 2 2 2 2 2 2 2 2 2 2 2 2 2 2 2 2 2 2 2 2 2 2 2 2 2 2 2 2 2 2 2 U [.`.`.`.",
"`.`.[.4.2 2 2 2 2 2 2 2 2 2 2 2 2 2 2 2 2 2 2 2 2 2 2 2 2 2 2 2 2 2 2 2 2 2 2 2 2 2 2 2 2 M `.`.`.`.",
"`.`.(.T 2 2 2 2 2 2 2 2 2 2 2 2 2 2 2 2 2 2 2 2 2 2 2 2 2 2 2 2 2 2 2 2 2 2 2 2 2 2 2 2 2 2 W.[.`.`.",
"`.`.L.I 2 2 2 2 2 2 2 2 2 2 2 2 2 2 2 2 2 2 2 2 2 2 2 2 2 2 2 2 2 2 2 2 2 2 2 2 2 2 2 2 2 2 a.`.`.`.",
"`.T.h.h 2 2 2 2 2 2 2 2 2 2 2 2 2 2 2 2 2 2 2 2 2 2 2 2 2 2 2 2 2 2 2 2 2 2 2 2 2 2 2 2 2 2 1.`.`.`.",
"`.T.v.x 2 2 2 2 2 2 2 2 2 2 2 2 2 2 2 2 2 2 2 2 2 2 2 2 2 2 2 2 2 2 2 2 2 2 2 2 2 2 2 2 2 2 %.`.`.`.",
"`.T.y.X 2 2 2 2 2 2 2 2 2 2 2 2 2 2 2 2 2 2 2 2 2 2 2 2 2 2 2 2 2 2 2 2 2 2 2 2 2 2 2 2 2 2 { `.`.`.",
"`.`.b.O 2 2 2 2 2 2 2 2 2 2 2 2 2 2 2 2 2 2 2 2 2 2 2 2 2 2 2 2 2 2 2 2 2 2 2 2 2 2 2 2 2 2 X.`.`.`.",
"`.`.z.b 2 2 2 2 2 2 2 2 2 2 2 2 2 2 2 2 2 2 2 2 2 2 2 2 2 2 2 2 2 2 2 2 2 2 2 2 2 2 2 2 2 2 =.`.`.`.",
"`.T.A.C 2 2 2 2 2 2 2 2 2 2 2 2 2 2 2 2 2 2 2 2 2 2 2 2 2 2 2 2 2 2 2 2 2 2 2 2 2 2 2 2 2 2 -.`.`.`.",
"`.`.I.F 2 2 2 2 2 2 2 2 2 2 2 2 2 2 2 2 2 2 2 2 2 2 2 2 2 2 2 2 2 2 2 2 2 2 2 2 2 2 2 2 2 2 b.`.`.`.",
"`.[.T.X.2 2 2 2 2 2 2 2 2 2 2 2 2 2 2 2 2 2 2 2 2 2 2 2 2 2 2 2 2 2 2 2 2 2 2 2 2 2 2 2 2 y (.[.`.`.",
"`.[.T.i.2 2 2 2 2 2 2 2 2 2 2 2 2 2 2 2 2 2 2 2 2 2 2 2 2 2 2 2 2 2 2 2 2 2 2 2 2 2 2 2 2 S `.`.`.`.",
"`.T.T.Y.y 2 2 2 2 2 2 2 2 2 2 2 2 2 2 2 2 2 2 2 2 2 2 2 2 2 2 2 2 2 2 2 2 2 2 2 2 2 2 2 & X.[.`.`.`.",
"`.`.`.`.~ 5 2 2 2 2 2 2 2 2 2 2 2 2 2 2 2 2 2 2 2 2 2 2 2 2 2 2 2 2 2 2 2 2 2 2 2 2 2 2 o a.`.`.`.`.",
"`.`.`.`.6.w 2 2 2 2 2 2 2 2 2 2 2 2 2 2 2 2 2 2 2 2 2 2 2 2 2 2 2 2 2 2 2 2 2 2 2 2 2 2 U Q.`.`.`.`.",
"`.`.`.`.Q.! 2 2 2 2 2 2 2 2 2 2 2 2 2 2 2 2 2 2 2 2 2 2 2 2 2 2 2 2 2 2 2 2 2 2 2 2 2 & f.`.`.`.`.`.",
"`.`.`.`.`.g.5 2 2 2 2 2 2 2 2 2 2 2 2 2 2 2 2 2 2 2 2 2 2 2 2 2 2 2 2 2 2 2 2 2 2 2 5 f R.`.`.`.`.`.",
"`.`.`.`.`.`.} : 2 2 2 2 2 2 2 2 2 2 2 2 2 2 2 2 2 2 2 2 2 2 2 2 2 2 2 2 2 2 2 2 2 2 n f.`.`.`.`.`.`.",
"`.`.`.`.`.`.b.k 2 2 2 2 2 2 2 2 2 2 2 2 2 2 2 2 2 2 2 2 2 2 2 2 2 2 2 2 2 2 2 2 2 2 1.(.`.`.`.`.`.`.",
"`.`.`.`.`.`.`.d.e 2 2 2 2 2 2 2 2 2 2 2 2 2 2 2 2 2 2 2 2 2 2 2 2 2 2 2 2 2 2 2 : R `.`.`.`.`.`.`.`.",
"`.`.`.`.`.`.`.`.=.r 2 2 2 2 2 2 2 2 2 2 2 2 2 2 2 2 2 2 2 2 2 2 2 2 2 2 2 2 2 2 I m.`.`.`.`.`.`.`.`.",
"`.`.`.`.`.`.`.`.[.w.e 2 2 2 2 2 2 2 2 2 2 2 2 2 2 2 2 2 2 2 2 2 2 2 2 2 2 2 : P (.[.`.`.`.`.`.`.`.`.",
"`.`.`.`.`.`.`.`.`.[.4.X 2 2 2 2 2 2 2 2 2 2 2 2 2 2 2 2 2 2 2 2 2 2 2 2 2 2   Z.`.`.`.`.`.`.`.`.`.`.",
"`.`.`.`.`.`.`.`.`.`.`.Q.P 7 2 2 2 2 2 2 2 2 2 2 2 2 2 2 2 2 2 2 2 2 2 = b <.`.`.`.`.`.`.`.`.`.`.`.`.",
"`.`.`.`.`.`.`.`.`.`.`.`.S.1.r 2 2 2 2 2 2 2 2 2 2 2 2 2 2 2 2 2 2 2 : f d.(.`.[.`.`.`.`.`.`.`.`.`.`.",
"`.`.`.`.`.`.`.`.`.`.`.`.`.`.Q.<.k w 2 2 2 2 2 2 2 2 2 2 2 2 2 & @ F b.[.`.`.`.`.`.`.`.`.`.`.`.`.`.`.",
"`.`.`.`.`.`.`.`.`.`.`.`.`.`.`.[.V.0.R b = 2 2 2 2 2 2 2 2 7 P #.g.Q.`.`.`.`.`.`.`.`.`.`.`.`.`.`.`.`.",
"`.`.`.`.`.`.`.`.`.`.`.`.`.`.`.`.`.[.`.`.^.f.:.%.X.o.=.7.Z.[.`.`.`.`.`.`.`.`.`.`.`.`.`.`.`.`.`.`.`.`.",
"`.`.`.`.`.`.`.`.`.`.`.`.`.`.`.`.`.`.`.`.`.`.`.`.`.`.`.`.`.`.`.`.`.`.`.`.`.`.`.`.`.`.`.`.`.`.`.`.`.`.",
"`.`.`.`.`.`.`.`.`.`.`.`.`.`.`.`.`.`.`.`.`.`.`.`.`.`.`.`.`.`.`.`.`.`.`.`.`.`.`.`.`.`.`.`.`.`.`.`.`.`.",
"`.`.`.`.`.`.`.`.`.`.`.`.`.`.`.`.`.`.`.`.`.`.`.`.`.`.`.`.`.`.`.`.`.`.`.`.`.`.`.`.`.`.`.`.`.`.`.`.`.`."
};
