/* XPM */
static char *yel[] = {
/* columns rows colors chars-per-pixel */
"50 50 172 2 ",
"   c #77777F",
".  c #7C7B7A",
"X  c #7C7A7B",
"o  c #7D7C79",
"O  c #7F7D78",
"+  c #7D7C7A",
"@  c #79787F",
"#  c #817F75",
"$  c #807D77",
"%  c #BDAF35",
"&  c #BEAF35",
"*  c #BCAE36",
"=  c #BDAF36",
"-  c #B5A83E",
";  c #B8AB3B",
":  c #BBAD38",
">  c #BBAD39",
",  c #BFB033",
"<  c #CFBD22",
"1  c #CFBD23",
"2  c #CBBA27",
"3  c #CDBB24",
"4  c #CDBB25",
"5  c #CCBA26",
"6  c #CCBB26",
"7  c #CDBC24",
"8  c #C3B32F",
"9  c #C4B52D",
"0  c #C4B42E",
"q  c #CAB928",
"w  c #D0BD21",
"e  c #D1BF20",
"r  c #D1BE21",
"t  c #D0BD22",
"y  c #C1B231",
"u  c #C2B330",
"i  c #C2B231",
"p  c #C0B133",
"a  c #D3C01E",
"s  c #D2C01F",
"d  c #D4C11D",
"f  c #978F5F",
"g  c #9F9755",
"h  c #9D9557",
"j  c #9F9756",
"k  c #97905F",
"l  c #9A935B",
"z  c #9B945A",
"x  c #99925C",
"c  c #A69D4E",
"v  c #A99F4B",
"b  c #A89E4C",
"n  c #A99F4C",
"m  c #A09755",
"M  c #A39A51",
"N  c #A29A52",
"B  c #A59B50",
"V  c #A49A51",
"C  c #A19854",
"Z  c #AEA345",
"A  c #ADA246",
"S  c #AFA444",
"D  c #ABA049",
"F  c #B1A443",
"G  c #B0A543",
"H  c #B2A542",
"J  c #8E8967",
"K  c #8F8967",
"L  c #8F8A67",
"P  c #87836F",
"I  c #8B876A",
"U  c #89856D",
"Y  c #8A856D",
"T  c #8C8869",
"R  c #8E8968",
"E  c #948E61",
"W  c #958F61",
"Q  c #969060",
"!  c #858271",
"~  c #838074",
"^  c #3D48BE",
"/  c #5E639A",
"(  c #5F639A",
")  c #5F649A",
"_  c #5A609E",
"`  c #5D619C",
"'  c #6D6E8B",
"]  c #6E6F8A",
"[  c #6E6F8B",
"{  c #696B8F",
"}  c #6A6D8D",
"|  c #6A6D8E",
" . c #757583",
".. c #727285",
"X. c #646695",
"o. c #646795",
"O. c #676A93",
"+. c #656894",
"@. c #686A91",
"#. c #606498",
"$. c #4B53AF",
"%. c #4E56AC",
"&. c #4C54AE",
"*. c #575CA3",
"=. c #575EA2",
"-. c #575EA3",
";. c #535AA6",
":. c #535AA7",
">. c #545BA6",
",. c #565CA4",
"<. c #575CA4",
"1. c #5A5FA0",
"2. c #585EA2",
"3. c #5158A8",
"4. c #5259A8",
"5. c #434DB7",
"6. c #444DB7",
"7. c #424CB9",
"8. c #404BBC",
"9. c #4750B3",
"0. c #4750B5",
"q. c #1E2FDF",
"w. c #1F30DE",
"e. c #2D3BCF",
"r. c #2F3DCD",
"t. c #303ECB",
"y. c #313ECB",
"u. c #323FCA",
"i. c #2737D5",
"p. c #2535D7",
"a. c #2636D6",
"s. c #2736D6",
"d. c #2837D4",
"f. c #2837D5",
"g. c #2B3AD1",
"h. c #2938D3",
"j. c #2A39D2",
"k. c #2C3AD0",
"l. c #2838D4",
"z. c #2132DB",
"x. c #2333DA",
"c. c #2434D8",
"v. c #2534D8",
"b. c #2535D8",
"n. c #2434D9",
"m. c #0E23EF",
"M. c #0F24EE",
"N. c #172AE6",
"B. c #1B2DE2",
"V. c #1A2CE3",
"C. c #1D2EE0",
"Z. c #1C2EE1",
"A. c #192BE5",
"S. c #192CE5",
"D. c #1327EA",
"F. c #1326EB",
"G. c #1125EC",
"H. c #1024ED",
"J. c #1125ED",
"K. c #1225EC",
"L. c #1226EC",
"P. c #1024EE",
"I. c #1528E9",
"U. c #1629E8",
"Y. c #0B20F3",
"T. c #0D21F1",
"R. c #0D22F1",
"E. c #0C21F2",
"W. c #3744C4",
"Q. c #3A47C1",
"!. c #3946C2",
"~. c #3440C8",
/* pixels */
"Y.Y.Y.Y.Y.Y.Y.Y.Y.Y.Y.Y.Y.Y.Y.Y.Y.Y.Y.Y.Y.Y.Y.Y.Y.Y.Y.Y.Y.Y.Y.Y.Y.Y.Y.Y.Y.Y.Y.Y.Y.Y.Y.Y.Y.Y.Y.Y.Y.Y.",
"Y.Y.Y.Y.Y.Y.Y.Y.Y.Y.Y.Y.Y.Y.Y.Y.Y.Y.Y.Y.Y.Y.Y.Y.Y.Y.Y.Y.Y.Y.Y.Y.Y.Y.Y.Y.Y.Y.Y.Y.Y.Y.Y.Y.Y.Y.Y.Y.Y.Y.",
"Y.Y.Y.Y.Y.Y.Y.Y.Y.Y.Y.Y.Y.Y.Y.Y.Y.Y.Y.Y.R.N.v.l.k.j.p.w.H.R.Y.Y.Y.Y.Y.Y.Y.Y.Y.Y.Y.Y.Y.Y.Y.Y.Y.Y.Y.Y.",
"Y.Y.Y.Y.Y.Y.Y.Y.Y.Y.Y.Y.Y.Y.Y.Y.Y.Y.V.7...U j b F Z M k + ) j.M.Y.Y.Y.Y.Y.Y.Y.Y.Y.Y.Y.Y.Y.Y.Y.Y.Y.Y.",
"Y.Y.Y.Y.Y.Y.Y.Y.Y.Y.Y.Y.Y.Y.H.v.( W w d d d d d d d d d d d d *  .7.I.Y.Y.Y.Y.Y.Y.Y.Y.Y.Y.Y.Y.Y.Y.Y.",
"Y.Y.Y.Y.Y.Y.Y.Y.Y.Y.Y.Y.Y.D.+.C q d d d d d d d d d d d d d d d < * + Q.Y.Y.Y.Y.Y.Y.Y.Y.Y.Y.Y.Y.Y.Y.",
"Y.Y.Y.Y.Y.Y.Y.Y.Y.Y.Y.M.4.B d d d d d d d d d d d d d d d d d d d d d < [ j.Y.Y.Y.Y.Y.Y.Y.Y.Y.Y.Y.Y.",
"Y.Y.Y.Y.Y.Y.Y.Y.Y.Y.I.,.i d d d d d d d d d d d d d d d d d d d d d d d 2 h x.R.Y.Y.Y.Y.Y.Y.Y.Y.Y.Y.",
"Y.Y.Y.Y.Y.Y.Y.Y.Y.C.W w d d d d d d d d d d d d d d d d d d d d d d d d d d - *.R.Y.Y.Y.Y.Y.Y.Y.Y.Y.",
"Y.Y.Y.Y.Y.Y.Y.Y.q.$ w d d d d d d d d d d d d d d d d d d d d d d d d d d d d * ^ R.Y.Y.Y.Y.Y.Y.Y.Y.",
"Y.Y.Y.Y.Y.Y.Y.N.z w d d d d d d d d d d d d d d d d d d d d d d d d d d d d d d * *.Y.Y.Y.Y.Y.Y.Y.Y.",
"Y.Y.Y.Y.Y.Y.H.( w d d d d d d d d d d d d d d d d d d d d d d d d d d d d d d d d - q.Y.Y.Y.Y.Y.Y.Y.",
"Y.Y.Y.Y.Y.Y.>.i d d d d d d d d d d d d d d d d d d d d d d d d d d d d d d d d d d J q.Y.Y.Y.Y.Y.Y.",
"Y.Y.Y.Y.Y.M.b a d d d d d d d d d d d d d d d d d d d d d d d d d d d d d d d d d d 9 *.Y.Y.Y.Y.Y.Y.",
"Y.Y.Y.Y.M.+.a d d d d d d d d d d d d d d d d d d d d d d d d d d d d d d d d d d d d i V.Y.Y.Y.Y.Y.",
"Y.Y.Y.Y.f.c d d d d d d d d d d d d d d d d d d d d d d d d d d d d d d d d d d d d d d *.R.Y.Y.Y.Y.",
"Y.Y.Y.Y.@.4 d d d d d d d d d d d d d d d d d d d d d d d d d d d d d d d d d d d d d d M d.Y.Y.Y.Y.",
"Y.Y.Y.Y.z d d d d d d d d d d d d d d d d d d d d d d d d d d d d d d d d d d d d d d d i $.Y.Y.Y.Y.",
"Y.Y.Y.v.d d d d d d d d d d d d d d d d d d d d d d d d d d d d d d d d d d d d d d d d d P Y.Y.Y.Y.",
"Y.Y.Y.$.d d d d d d d d d d d d d d d d d d d d d d d d d d d d d d d d d d d d d d d d d F Y.Y.Y.Y.",
"Y.Y.H.X d d d d d d d d d d d d d d d d d d d d d d d d d d d d d d d d d d d d d d d d d d V.R.Y.Y.",
"Y.Y.V.R d d d d d d d d d d d d d d d d d d d d d d d d d d d d d d d d d d d d d d d d d d W.Y.Y.Y.",
"Y.Y.v.M d d d d d d d d d d d d d d d d d d d d d d d d d d d d d d d d d d d d d d d d d a *.Y.Y.Y.",
"Y.Y.l.D d d d d d d d d d d d d d d d d d d d d d d d d d d d d d d d d d d d d d d d d d d X.Y.Y.Y.",
"Y.Y.e.F d d d d d d d d d d d d d d d d d d d d d d d d d d d d d d d d d d d d d d d d d a ] Y.Y.Y.",
"Y.Y.j.S d d d d d d d d d d d d d d d d d d d d d d d d d d d d d d d d d d d d d d d d d d | Y.Y.Y.",
"Y.Y.p.n d d d d d d d d d d d d d d d d d d d d d d d d d d d d d d d d d d d d d d d d d d _ Y.Y.Y.",
"Y.Y.w.x d d d d d d d d d d d d d d d d d d d d d d d d d d d d d d d d d d d d d d d d d a $.Y.Y.Y.",
"Y.Y.I.! d d d d d d d d d d d d d d d d d d d d d d d d d d d d d d d d d d d d d d d d d d p.Y.Y.Y.",
"Y.Y.R.| d d d d d d d d d d d d d d d d d d d d d d d d d d d d d d d d d d d d d d d d d 2 D.Y.Y.Y.",
"Y.Y.Y.~.d d d d d d d d d d d d d d d d d d d d d d d d d d d d d d d d d d d d d d d d d f Y.Y.Y.Y.",
"Y.R.Y.I.9 d d d d d d d d d d d d d d d d d d d d d d d d d d d d d d d d d d d d d d d < ] Y.Y.Y.Y.",
"Y.Y.Y.Y.@ e d d d d d d d d d d d d d d d d d d d d d d d d d d d d d d d d d d d d d d G ~.E.E.Y.Y.",
"Y.Y.Y.Y.0., d d d d d d d d d d d d d d d d d d d d d d d d d d d d d d d d d d d d d d U S.Y.Y.Y.Y.",
"Y.Y.Y.Y.I.~ d d d d d d d d d d d d d d d d d d d d d d d d d d d d d d d d d d d d d 4 t.Y.Y.Y.Y.Y.",
"Y.Y.Y.Y.R.!.w d d d d d d d d d d d d d d d d d d d d d d d d d d d d d d d d d d d d Q R.Y.Y.Y.Y.Y.",
"Y.Y.Y.Y.Y.Y.[ 2 d d d d d d d d d d d d d d d d d d d d d d d d d d d d d d d d d d n t.Y.Y.Y.Y.Y.Y.",
"Y.Y.Y.Y.Y.Y.j.C d d d d d d d d d d d d d d d d d d d d d d d d d d d d d d d d d d 2.R.Y.Y.Y.Y.Y.Y.",
"Y.Y.Y.Y.Y.R.Y.j.* d d d d d d d d d d d d d d d d d d d d d d d d d d d d d d d q + Y.Y.Y.Y.Y.Y.Y.Y.",
"Y.Y.Y.Y.Y.Y.Y.Y._ , d d d d d d d d d d d d d d d d d d d d d d d d d d d d d d R l.Y.Y.Y.Y.Y.Y.Y.Y.",
"Y.Y.Y.Y.Y.Y.Y.Y.R.^ > w d d d d d d d d d d d d d d d d d d d d d d d d d d 2 J H.R.R.Y.Y.Y.Y.Y.Y.Y.",
"Y.Y.Y.Y.Y.Y.Y.Y.Y.Y.%.Z d d d d d d d d d d d d d d d d d d d d d d d d d d   w.Y.Y.Y.Y.Y.Y.Y.Y.Y.Y.",
"Y.Y.Y.Y.Y.Y.Y.Y.Y.Y.Y.C.R u d d d d d d d d d d d d d d d d d d d d d a c %.Y.Y.Y.Y.Y.Y.Y.Y.Y.Y.Y.Y.",
"Y.Y.Y.Y.Y.Y.Y.Y.Y.Y.Y.Y.C.4.i d d d d d d d d d d d d d d d d d d d 3 f e.M.Y.Y.Y.Y.Y.Y.Y.Y.Y.Y.Y.Y.",
"Y.Y.Y.Y.Y.Y.Y.Y.Y.Y.Y.Y.Y.Y.A.4.C * s d d d d d d d d d d d d 4 Z # j.Y.Y.Y.Y.Y.Y.Y.Y.Y.Y.Y.Y.Y.Y.Y.",
"Y.Y.Y.Y.Y.Y.Y.Y.Y.Y.Y.Y.Y.Y.Y.Y.v.5.$ n e d d d e d d d s u L +.r.N.Y.Y.Y.Y.Y.Y.Y.Y.Y.Y.Y.Y.Y.Y.Y.Y.",
"Y.Y.Y.Y.Y.Y.Y.Y.Y.Y.Y.Y.Y.Y.Y.Y.Y.Y.Y.Y.I.t.4.#.[ @.1.0.q.R.Y.Y.Y.Y.Y.Y.Y.Y.Y.Y.Y.Y.Y.Y.Y.Y.Y.Y.Y.Y.",
"Y.Y.Y.Y.Y.Y.Y.Y.Y.Y.Y.Y.Y.Y.Y.Y.Y.Y.Y.Y.Y.E.Y.Y.Y.Y.E.E.Y.Y.Y.Y.Y.Y.Y.Y.Y.Y.Y.Y.Y.Y.Y.Y.Y.Y.Y.Y.Y.Y.",
"Y.Y.Y.Y.Y.Y.Y.Y.Y.Y.Y.Y.Y.Y.Y.Y.Y.Y.Y.Y.Y.Y.Y.Y.Y.Y.Y.Y.Y.Y.Y.Y.Y.Y.Y.Y.Y.Y.Y.Y.Y.Y.Y.Y.Y.Y.Y.Y.Y.Y.",
"Y.Y.Y.Y.Y.Y.Y.Y.Y.Y.Y.Y.Y.Y.Y.Y.Y.Y.Y.Y.Y.Y.Y.Y.Y.Y.Y.Y.Y.Y.Y.Y.Y.Y.Y.Y.Y.Y.Y.Y.Y.Y.Y.Y.Y.Y.Y.Y.Y.Y."
};
