/* XPM */
static char *bg[] = {
/* columns rows colors chars-per-pixel */
"50 50 158 2 ",
"   c black",
".  c #000001",
"X  c #000002",
"o  c #000004",
"O  c #000104",
"+  c #000005",
"@  c #000105",
"#  c #000106",
"$  c #000108",
"%  c #01010B",
"&  c #00020C",
"*  c #01020D",
"=  c #01020E",
"-  c #010313",
";  c #010316",
":  c #010319",
">  c #01031A",
",  c #01041A",
"<  c #01041B",
"1  c #02031C",
"2  c #02041C",
"3  c #02041E",
"4  c #020420",
"5  c #020421",
"6  c #020527",
"7  c #020529",
"8  c #020629",
"9  c #02062A",
"0  c #02062E",
"q  c #020630",
"w  c #030734",
"e  c #030735",
"r  c #030737",
"t  c #020837",
"y  c #030738",
"u  c #03073B",
"i  c #030839",
"p  c #03083A",
"a  c #03083C",
"s  c #03083D",
"d  c #03083F",
"f  c #030940",
"g  c #030942",
"h  c #030944",
"j  c #030945",
"k  c #030946",
"l  c #030A4A",
"z  c #040A48",
"x  c #040A4B",
"c  c #040A4C",
"v  c #040B4F",
"b  c #040B50",
"n  c #040B54",
"m  c #040B55",
"M  c #040B56",
"N  c #040B57",
"B  c #040B58",
"V  c #040C5C",
"C  c #050C5C",
"Z  c #040C5D",
"A  c #040D5F",
"S  c #050D62",
"D  c #040D64",
"F  c #050E66",
"G  c #050E68",
"H  c #050E69",
"J  c #050E6A",
"K  c #050F6B",
"L  c #050F6E",
"P  c #050F71",
"I  c #051075",
"U  c #051076",
"Y  c #06107A",
"T  c #06107C",
"R  c #06117D",
"E  c #06117E",
"W  c #06117F",
"Q  c #061180",
"!  c #061285",
"~  c #061287",
"^  c #06128B",
"/  c #07138B",
"(  c #07138C",
")  c #07138D",
"_  c #07138F",
"`  c #071391",
"'  c #071494",
"]  c #071495",
"[  c #071497",
"{  c #071498",
"}  c #07159A",
"|  c #07159C",
" . c #07159D",
".. c #07159E",
"X. c #07159F",
"o. c #0716A1",
"O. c #0716A2",
"+. c #0716A5",
"@. c #0716A9",
"#. c #0817AB",
"$. c #0817AC",
"%. c #0817AD",
"&. c #0818AF",
"*. c #0817B0",
"=. c #0818B4",
"-. c #0819B6",
";. c #0919BC",
":. c #0919BF",
">. c #091ABF",
",. c #091AC1",
"<. c #091AC4",
"1. c #091AC6",
"2. c #091AC7",
"3. c #091AC8",
"4. c #091BC9",
"5. c #091BCB",
"6. c #091BCD",
"7. c #0A1BCC",
"8. c #091BCE",
"9. c #091BCF",
"0. c #091CCF",
"q. c #0A1BD0",
"w. c #091CD0",
"e. c #091CD2",
"r. c #0A1CD2",
"t. c #0A1CD3",
"y. c #0A1CD4",
"u. c #0A1CD5",
"i. c #0A1CD6",
"p. c #0A1CD7",
"a. c #0A1DD9",
"s. c #0A1DDB",
"d. c #0A1DDC",
"f. c #0A1DDD",
"g. c #0A1DDE",
"h. c #0A1DDF",
"j. c #0A1DE0",
"k. c #0A1EE1",
"l. c #0A1EE2",
"z. c #0A1EE4",
"x. c #0B1EE4",
"c. c #0A1EE5",
"v. c #0B1EE5",
"b. c #0A1EE7",
"n. c #0A1FE8",
"m. c #0B1FE8",
"M. c #0B1FE9",
"N. c #0B1FEB",
"B. c #0B1FEC",
"V. c #0B1FED",
"C. c #0B1FEE",
"Z. c #0A1FF2",
"A. c #0B20EE",
"S. c #0B20EF",
"D. c #0B20F0",
"F. c #0B20F1",
"G. c #0B20F2",
"H. c #0B20F3",
/* pixels */
"H.H.H.H.H.H.H.H.H.H.H.H.H.H.H.H.H.H.H.H.H.H.H.H.H.H.H.H.H.H.H.H.H.H.H.H.H.H.H.H.H.H.H.H.H.H.H.H.H.H.",
"H.H.H.H.H.H.H.H.H.H.H.H.H.H.H.H.H.H.H.H.H.H.H.H.H.H.H.Z.H.H.H.H.H.H.H.H.H.H.H.H.H.H.H.H.H.H.H.H.H.H.",
"H.H.H.H.H.H.H.H.H.H.H.H.H.H.H.H.H.H.H.H.F.v.y.q.7.7.y.f.C.H.H.H.H.H.H.H.H.H.H.H.H.H.H.H.H.H.H.H.H.H.",
"H.H.H.H.H.H.H.H.H.H.H.H.H.H.H.H.H.H.j.*.P A f e 0 q s c K ) 7.C.H.H.H.F.H.H.H.H.H.H.H.H.H.H.H.H.H.H.",
"H.H.H.H.H.H.H.H.H.H.H.H.H.H.C.y.) b #                         1 I &.v.F.H.H.H.H.H.H.H.H.H.H.H.H.H.H.",
"H.H.H.H.H.H.H.H.H.H.H.H.H.m.~ g *                               # 5 K ;.H.H.H.H.H.H.H.H.H.H.H.H.H.H.",
"H.H.H.H.H.H.H.H.H.H.H.A.X.e                                           # W 0.H.H.H.H.H.H.H.H.H.H.H.H.",
"Z.H.H.H.H.H.H.H.H.H.m.] 3                                               * h u.H.H.H.H.H.H.H.H.H.H.H.",
"H.H.H.H.H.H.H.Z.H.a.b #                                                     5 ' F.H.H.H.H.H.H.H.H.H.",
"H.H.H.H.H.H.H.H.a.K #                                                         3 -.F.H.H.H.H.H.H.H.H.",
"H.H.H.H.H.H.H.v.z                                                               3 } F.H.H.H.H.H.H.H.",
"H.H.Z.H.H.H.C.) #                                                                 6 h.H.H.H.H.H.H.H.",
"H.H.H.H.H.H...;                                                                     B f.H.H.H.H.H.H.",
"H.H.H.H.H.A.e                                                                       ; } H.H.H.H.H.H.",
"H.H.H.H.C.^                                                                           : k.H.H.H.H.H.",
"H.H.H.H.q.d                                                                             } F.H.H.H.H.",
"H.H.H.H.~ $                                                                             i q.F.H.H.H.",
"H.H.H.F.h                                                                               : +.H.H.H.H.",
"H.H.H.a.                                                                                  A H.H.H.H.",
"H.H.F.+.                                                                                  7 H.H.H.H.",
"H.H.C.K                                                                                     j.H.H.H.",
"H.H.j.b                                                                                     ,.H.H.H.",
"H.H.y.d                                                                                     } H.H.H.",
"H.Z.7.e                                                                                     / F.H.H.",
"H.H.7.7                                                                                     W H.H.H.",
"H.H.7.q                                                                                     Q H.H.H.",
"H.H.y.y                                                                                     ' F.H.H.",
"H.H.a.k                                                                                     #.H.H.H.",
"H.H.m.D                                                                                     u.H.H.H.",
"H.H.H.W                                                                                   * S.F.H.H.",
"H.H.H.1.                                                                                  z H.H.H.H.",
"H.H.H.m.;                                                                               # W H.H.H.H.",
"H.H.H.H.L #                                                                             7 ,.F.H.H.H.",
"H.H.H.H.#.3                                                                             A v.H.H.H.H.",
"H.H.H.H.v.D                                                                           $ 4.H.H.H.H.H.",
"H.H.H.H.F.,.#                                                                         c F.H.H.H.H.H.",
"H.H.H.H.H.H.Y $                                                                     i 1.H.H.H.H.H.H.",
"H.H.H.H.H.H.4.d                                                                     } S.H.H.H.H.H.H.",
"H.H.H.H.H.H.H.4.3                                                               * D H.H.H.H.H.H.H.H.",
"H.H.H.H.H.H.H.H.` 3                                                             M y.H.H.H.H.H.H.H.H.",
"H.H.H.H.H.H.H.H.F.-.5                                                       * M C.F.H.H.H.H.H.H.H.H.",
"H.H.H.H.H.H.H.H.F.F.O.7                                                     P y.H.F.H.H.H.H.H.H.H.H.",
"H.H.H.H.H.H.H.H.F.H.H.j.A ;                                           # i O.H.H.H.H.H.H.H.H.H.H.H.H.",
"H.H.H.H.H.H.H.H.H.H.H.H.f.X.3                                       $ c 4.C.H.H.H.H.H.H.H.H.H.H.H.H.",
"H.H.H.H.H.H.H.H.H.H.H.H.H.H.j.X.f 1                           $ 0 S 7.Z.H.H.H.H.H.H.H.H.H.H.H.H.H.H.",
"H.H.H.H.H.H.H.H.H.H.H.H.H.H.F.F.y.%.K y #               # ; N ~ 4.v.Z.H.H.H.H.H.H.H.H.H.H.H.H.H.H.Z.",
"H.H.H.H.H.H.H.H.H.H.H.H.H.H.F.H.H.H.H.H.m.1.X.( W ~ ' &.f.F.H.H.H.H.H.H.H.H.H.H.H.H.H.H.H.H.H.H.H.H.",
"H.H.H.H.H.H.H.H.H.H.H.H.H.H.H.H.H.H.H.H.H.F.H.F.F.F.F.F.H.H.H.H.H.H.H.H.H.H.H.H.H.H.H.H.H.H.H.H.H.H.",
"H.H.H.H.H.H.H.H.H.H.H.H.H.H.H.H.H.H.H.H.H.H.H.H.H.H.H.H.H.H.H.H.H.H.H.H.H.H.H.H.H.H.H.H.H.H.H.H.H.H.",
"H.H.H.H.H.H.H.H.H.H.H.H.H.H.H.H.H.H.H.H.H.H.H.H.H.H.H.H.H.H.H.H.H.H.H.H.H.H.H.H.H.H.H.H.H.H.H.H.H.H."
};
