/* XPM */
static char *tred[] = {
/* columns rows colors chars-per-pixel */
"50 50 132 2 ",
"   c black",
".  c #010000",
"X  c #020000",
"o  c #040101",
"O  c #050101",
"+  c #060101",
"@  c #070101",
"#  c #080101",
"$  c #0E0302",
"%  c #0F0303",
"&  c #100303",
"*  c #110303",
"=  c #120303",
"-  c #200606",
";  c #210606",
":  c #220606",
">  c #230606",
",  c #2B0708",
"<  c #2B0808",
"1  c #2E0808",
"2  c #2F0808",
"3  c #2F0809",
"4  c #2F0909",
"5  c #300908",
"6  c #300909",
"7  c #310909",
"8  c #370A0A",
"9  c #390A0A",
"0  c #390B0A",
"q  c #3A0A0A",
"w  c #3A0B0A",
"e  c #3C0B0B",
"r  c #3D0B0B",
"t  c #3E0B0B",
"y  c #3F0B0B",
"u  c #3E0C0B",
"i  c #3F0C0B",
"p  c #3C0B0C",
"a  c #400B0B",
"s  c #410C0B",
"d  c #420C0C",
"f  c #430C0C",
"g  c #59100F",
"h  c #5A100F",
"j  c #591010",
"k  c #5B1110",
"l  c #5C1010",
"z  c #5C1110",
"x  c #671313",
"c  c #681312",
"v  c #691312",
"b  c #691313",
"n  c #6A1312",
"m  c #6C1413",
"M  c #6D1413",
"N  c #6F1513",
"B  c #6D1314",
"V  c #831817",
"C  c #851817",
"Z  c #871918",
"A  c #8A1918",
"S  c #8B1919",
"D  c #8B1A19",
"F  c #8C1919",
"G  c #8C1A18",
"H  c #8C1A19",
"J  c #8D1A19",
"K  c #9B1C1A",
"L  c #9B1C1B",
"P  c #9D1C1A",
"I  c #9C1C1B",
"U  c #9D1C1B",
"Y  c #9C1D1B",
"T  c #9E1D1B",
"R  c #9E1D1C",
"E  c #9F1D1C",
"W  c #9F1E1C",
"Q  c #A41D1B",
"!  c #A01D1C",
"~  c #A11D1C",
"^  c #A41D1C",
"/  c #A41E1C",
"(  c #A51E1C",
")  c #A41E1D",
"_  c #A51E1D",
"`  c #A61E1D",
"'  c #A71E1D",
"]  c #A51E1E",
"[  c #A61E1E",
"{  c #A71E1E",
"}  c #B1201E",
"|  c #B1211F",
" . c #B2201E",
".. c #B2201F",
"X. c #B3201F",
"o. c #B3211F",
"O. c #B4201F",
"+. c #B4211F",
"@. c #B5211F",
"#. c #B32020",
"$. c #B42020",
"%. c #B62120",
"&. c #B72120",
"*. c #B92120",
"=. c #BE2221",
"-. c #BF2221",
";. c #BF2321",
":. c #C02321",
">. c #C22321",
",. c #C12322",
"<. c #C22322",
"1. c #C32322",
"2. c #C52321",
"3. c #C62321",
"4. c #C42322",
"5. c #C52322",
"6. c #C62322",
"7. c #C22422",
"8. c #C32422",
"9. c #C42421",
"0. c #C52421",
"q. c #C62421",
"w. c #C42422",
"e. c #C52422",
"r. c #C52522",
"t. c #C52423",
"y. c #C62422",
"u. c #C72422",
"i. c #C62522",
"p. c #C62423",
"a. c #C72423",
"s. c #C62523",
/* pixels */
"                                                                                                    ",
"                                                                                                    ",
"                                                                                                    ",
"                                                                                                    ",
"                                  # = f N G { O.>.>.+.( G N p ; #                                   ",
"                                t B U | u.u.a.2.p.p.p.p.a.2.| I c 0                                 ",
"                          # f G 2.p.p.9.u.u.q.q.p.p.u.p.p.u.2.p.2.u.G f @                           ",
"                        = h | p.p.p.p.p.p.p.2.q.p.p.p.p.p.p.2.p.p.p.p.| h &                         ",
"                    @ 2 ` u.p.p.9.9.u.u.u.u.9.p.p.p.p.p.q.u.q.u.q.q.2.q.2.` 5 @                     ",
"                    0 U u.2.u.u.u.i.u.u.p.u.u.u.9.p.9.u.p.9.u.q.u.q.2.q.2.p.U 0                     ",
"                @ 0 -.2.2.u.2.u.u.u.u.u.p.9.9.u.p.p.9.u.u.9.u.u.u.9.p.u.a.p.p.8.w @                 ",
"                < U p.p.q.2.2.9.u.u.9.p.u.u.i.u.9.p.p.9.u.p.u.p.9.p.p.9.p.p.p.p.U <                 ",
"              = ` p.p.9.p.9.2.p.9.i.u.p.u.u.u.q.u.9.u.u.u.u.q.9.p.9.u.u.p.9.p.p.p.` &               ",
"            @ l p.p.9.p.p.p.p.p.u.u.i.i.u.9.u.i.u.u.i.q.p.9.u.u.p.u.u.u.u.9.p.p.p.p.l @             ",
"            i | 2.p.p.9.9.u.2.2.i.q.9.u.i.i.i.u.i.i.i.i.u.q.u.i.p.9.u.q.9.u.p.2.p.p.| i             ",
"            Z 8.p.p.p.p.9.9.p.p.i.i.u.u.u.q.q.u.9.i.u.u.i.i.u.u.u.9.p.9.p.p.2.p.p.p.p.C             ",
"          < p.2.9.p.9.u.q.q.i.q.q.u.u.u.u.u.i.9.q.u.9.u.q.u.u.i.u.i.u.i.q.u.p.u.p.u.p.u.<           ",
"        # c p.p.u.p.u.u.u.q.q.i.u.9.u.u.q.i.u.p.u.u.i.i.u.u.i.u.q.u.p.i.u.9.u.9.9.u.u.u.n #         ",
"        > ~ p.p.p.u.9.u.u.u.i.i.q.q.i.i.i.q.i.u.i.i.i.u.9.9.i.i.i.i.p.u.i.u.i.u.i.i.u.u.U ;         ",
"        f +.p.p.9.p.u.u.u.u.i.u.u.q.i.i.i.i.u.i.u.u.q.u.u.u.i.q.u.9.u.u.u.q.i.9.u.u.p.p.+.i         ",
"        n p.p.p.u.u.9.u.i.u.u.q.u.i.u.i.i.9.u.u.i.u.u.q.u.u.i.p.i.u.i.9.u.i.9.i.p.i.q.u.p.n         ",
"        Z u.p.9.p.q.q.p.u.9.i.i.q.i.q.q.u.u.u.q.i.9.i.u.i.u.q.q.i.u.i.u.9.u.u.i.q.q.p.p.p.C         ",
"        ' u.p.p.q.p.u.u.q.q.u.i.9.u.u.i.u.u.i.q.i.u.u.i.u.q.i.i.q.u.i.i.u.u.u.u.i.i.q.u.p.(         ",
"        @.9.9.u.q.u.9.p.i.i.p.u.u.u.i.p.i.u.i.i.u.q.i.u.u.u.u.9.i.u.i.u.i.u.i.u.u.i.q.u.9.+.        ",
"        8.p.p.p.i.u.u.u.u.i.u.u.u.i.u.u.u.u.i.p.i.i.u.u.i.u.u.p.q.u.i.q.u.u.9.u.p.p.p.a.2.8.        ",
"        >.p.p.p.i.u.9.u.i.i.q.u.u.i.u.u.q.9.i.i.i.u.u.u.u.q.u.i.q.u.i.i.i.u.q.i.p.p.p.a.a.>.        ",
"        @.9.p.9.u.u.9.u.i.u.i.9.i.i.u.u.u.u.u.i.q.q.9.u.i.u.9.q.i.q.u.9.u.9.u.u.p.p.a.a.a.%.        ",
"        { p.p.p.u.u.u.i.i.u.9.u.u.9.9.u.i.i.u.u.9.u.u.u.i.i.u.u.i.u.u.i.i.q.u.i.p.p.a.2.a.`         ",
"        Z u.u.u.i.i.u.u.u.i.q.i.u.i.i.i.q.u.i.u.u.u.u.u.i.u.9.i.u.u.u.i.p.u.u.q.9.p.p.u.a.V         ",
"        c p.q.q.i.i.q.u.u.q.u.i.i.u.q.i.u.u.q.9.u.u.9.9.i.i.q.q.9.u.i.p.i.9.p.p.p.9.u.u.>.x         ",
"        f +.u.u.u.u.9.i.9.u.u.i.i.i.u.u.q.i.i.i.u.i.i.i.i.u.u.u.u.u.u.u.q.i.u.u.p.p.p.u.+.f         ",
"        : U p.u.u.u.9.u.u.u.u.u.9.u.u.9.q.i.u.q.i.i.i.i.u.u.u.u.9.p.q.i.q.i.u.9.p.u.u.u.~ ;         ",
"        @ c u.a.a.2.p.p.p.p.p.p.i.i.i.i.i.i.i.i.q.q.i.q.9.u.u.u.u.i.p.i.9.u.u.p.p.p.9.p.n @         ",
"          < p.a.a.2.p.p.p.p.p.p.i.u.q.i.q.q.u.u.i.i.u.u.i.u.u.u.9.u.u.i.u.u.u.u.9.q.9.p.<           ",
"            C p.2.2.2.a.9.p.9.9.i.u.u.9.q.q.u.u.9.q.u.i.i.q.i.u.i.i.q.q.p.q.p.p.q.u.p.V             ",
"            i | 2.a.2.a.q.p.u.u.i.u.u.i.u.u.u.u.i.i.u.u.i.u.i.q.p.u.q.u.9.9.p.2.q.u.| f             ",
"            @ l 2.2.a.2.u.u.9.p.i.i.9.u.u.u.u.u.u.u.i.q.u.q.i.9.i.i.u.p.u.9.p.9.p.p.l #             ",
"              = ` a.a.2.p.p.9.9.i.i.u.i.p.9.u.u.9.u.i.9.u.u.u.u.i.q.9.u.u.u.p.p.p.` &               ",
"                < I 2.2.2.q.u.q.u.u.u.u.q.u.9.q.u.i.u.i.u.u.9.u.9.u.u.u.u.9.u.p.K <                 ",
"                + 0 >.q.2.q.q.q.u.u.u.9.q.p.p.9.u.u.u.i.u.i.u.i.u.u.p.9.p.p.u.-.8 @                 ",
"                    0 I a.a.a.p.u.p.p.u.p.p.p.p.p.p.u.u.p.p.p.p.2.2.p.2.p.p.U 0                     ",
"                    @ 6 ` a.p.p.u.u.p.p.p.p.p.p.9.u.u.u.p.p.p.p.p.p.2.2.p.` < @                     ",
"                        $ g %.p.a.u.2.p.9.u.u.p.u.p.9.9.p.p.u.u.p.p.p.| h $                         ",
"                          @ f D a.u.a.u.u.u.u.p.u.q.9.p.p.u.a.u.p.p.D f @                           ",
"                                < m U | >.p.p.u.p.2.p.9.p.p.| ` c 5                                 ",
"                                  @ ; t N G ` %.9.8.+.( G M i = @                                   ",
"                                                                                                    ",
"                                                                                                    ",
"                                                                                                    ",
"                                                                                                    "
};
