/* XPM */
static char *tyel[] = {
/* columns rows colors chars-per-pixel */
"50 50 146 2 ",
"   c black",
".  c #010000",
"X  c #040400",
"o  c #050501",
"O  c #060501",
"+  c #060601",
"@  c #070601",
"#  c #070701",
"$  c #080701",
"%  c #080801",
"&  c #121002",
"*  c #141202",
"=  c #141302",
"-  c #242105",
";  c #242205",
":  c #282505",
">  c #312E06",
",  c #322E06",
"<  c #322F06",
"1  c #343106",
"2  c #363207",
"3  c #363307",
"4  c #373307",
"5  c #383407",
"6  c #393407",
"7  c #3A3507",
"8  c #3F3B07",
"9  c #403C07",
"0  c #423D09",
"q  c #423E08",
"w  c #433E08",
"e  c #433E09",
"r  c #443E0A",
"t  c #454008",
"y  c #454009",
"u  c #484309",
"i  c #494309",
"p  c #48430A",
"a  c #49440A",
"s  c #4B460A",
"d  c #4B470A",
"f  c #4C460A",
"g  c #4C470A",
"h  c #655D0C",
"j  c #675F0C",
"k  c #68600D",
"l  c #69610D",
"z  c #69620D",
"x  c #6A620E",
"c  c #6A630E",
"v  c #776F0F",
"b  c #78700F",
"n  c #79700F",
"m  c #7A710F",
"M  c #787010",
"N  c #7A7210",
"B  c #7E7510",
"V  c #7F7510",
"C  c #7F7610",
"Z  c #968B12",
"A  c #978D13",
"S  c #988E13",
"D  c #998F13",
"F  c #9A8F14",
"G  c #9B9013",
"H  c #9B9014",
"J  c #A09514",
"K  c #A19514",
"L  c #A09415",
"P  c #A19614",
"I  c #A29615",
"U  c #B2A615",
"Y  c #B2A516",
"T  c #B3A616",
"R  c #B3A617",
"E  c #B4A715",
"W  c #B5A717",
"Q  c #B6A917",
"!  c #B7AA16",
"~  c #B7AA17",
"^  c #B8AB17",
"/  c #BAAD18",
"(  c #BBAE18",
")  c #BBAE19",
"_  c #BCAF18",
"`  c #BEB117",
"'  c #BEB118",
"]  c #BFB118",
"[  c #BFB218",
"{  c #BFB219",
"}  c #C1B318",
"|  c #C1B319",
" . c #CBBD1A",
".. c #CCBD19",
"X. c #CCBE19",
"o. c #CDBF19",
"O. c #CEBF19",
"+. c #CCBE1A",
"@. c #CDBE1A",
"#. c #CDBF1A",
"$. c #CEBF1A",
"%. c #CEBF1B",
"&. c #CEC019",
"*. c #CFC019",
"=. c #CEC01A",
"-. c #CEC01B",
";. c #CFC01B",
":. c #D1C21B",
">. c #D2C31A",
",. c #D2C31B",
"<. c #D2C41B",
"1. c #D9CA1A",
"2. c #DBCC1B",
"3. c #DCCD1B",
"4. c #DECE1B",
"5. c #DFCF1B",
"6. c #DCCC1C",
"7. c #DDCD1C",
"8. c #DDCE1C",
"9. c #DDCE1D",
"0. c #DECF1C",
"q. c #E0D01B",
"w. c #E1D11B",
"e. c #E2D21B",
"r. c #E3D21B",
"t. c #E2D31B",
"y. c #E3D31B",
"u. c #E4D31B",
"i. c #E0D01C",
"p. c #E1D11C",
"a. c #E1D11D",
"s. c #E1D21C",
"d. c #E2D21C",
"f. c #E3D21C",
"g. c #E2D31C",
"h. c #E3D31C",
"j. c #E2D21D",
"k. c #E3D31D",
"l. c #E4D31C",
"z. c #E4D31D",
"x. c #E3D41C",
"c. c #E3D41D",
"v. c #E4D41C",
"b. c #E4D41D",
"n. c #E5D41D",
"m. c #E4D41E",
/* pixels */
"                                                                                                    ",
"                                                                                                    ",
"                                                                                                    ",
"                                                                                                    ",
"                                  O ; t C I ` -.4.4.-.' I C t - %                                   ",
"                              O t N E -.a.x.v.a.v.a.x.u.x.a.+.Y b 0 O                               ",
"                          % f I v.a.u.a.a.u.u.v.x.u.x.u.y.x.x.y.u.u.I f %                           ",
"                        * z -.a.a.v.v.y.u.u.u.u.y.x.v.u.a.u.u.a.a.a.y.-.z &                         ",
"                    O 3 _ a.u.v.x.y.y.u.x.y.x.a.x.a.y.y.x.y.a.u.y.y.x.y.y.( 5 O                     ",
"                    0 Q v.a.u.x.x.x.x.v.x.y.u.y.u.u.x.x.y.y.u.y.x.y.a.x.v.a.Q 0                     ",
"                O 9 2.y.y.y.y.y.y.a.y.a.y.x.y.x.x.y.x.u.v.v.y.y.y.a.u.y.x.v.a.7.0 O                 ",
"                3 Q a.a.y.y.u.x.u.u.y.x.a.x.y.u.x.y.x.a.u.a.x.y.x.y.x.u.v.u.x.u.Q 3                 ",
"              * } a.l.a.v.u.u.x.x.u.u.u.a.y.u.y.a.u.y.x.x.y.a.v.x.y.u.a.u.v.u.u.y.( *               ",
"            % z y.u.y.a.u.u.x.a.v.a.v.x.x.x.y.u.u.y.a.x.y.y.u.u.u.x.y.y.v.a.l.u.a.y.z %             ",
"            u +.u.v.v.v.x.u.u.x.y.y.x.y.y.x.y.x.x.u.x.x.u.u.x.x.a.v.x.u.u.y.l.a.a.y.+.f             ",
"            F a.u.v.l.v.y.a.u.u.a.x.y.y.x.x.a.u.u.v.y.u.u.u.a.v.u.y.y.u.a.y.l.u.u.a.y.S             ",
"          < x.x.u.a.y.y.x.x.4.x.y.y.x.y.u.y.y.x.a.u.y.x.y.u.x.u.u.x.y.v.u.u.u.x.y.u.x.y.<           ",
"        % b u.a.x.x.y.y.x.x.u.x.u.u.x.u.u.u.u.y.v.v.y.u.a.u.a.x.a.y.a.u.x.x.u.u.u.u.a.x.v %         ",
"        : Q y.y.x.y.a.u.x.x.x.u.x.x.y.a.v.x.a.x.u.x.y.u.u.a.u.u.y.y.y.x.y.u.x.a.u.u.v.v.Q :         ",
"        f -.x.u.y.y.x.y.y.x.y.x.x.x.y.u.u.u.u.v.x.x.y.a.u.x.u.u.x.x.y.a.x.a.u.x.y.u.a.x.+.f         ",
"        N a.a.y.a.u.x.y.x.x.x.u.y.a.a.u.u.y.x.a.u.a.x.y.u.x.u.u.x.y.x.y.u.u.u.v.u.y.u.u.a.v         ",
"        S y.y.u.x.y.a.x.u.u.x.a.y.u.y.y.x.y.v.x.y.x.x.x.4.x.x.x.y.x.y.y.v.a.x.a.u.a.x.u.a.H         ",
"        | x.v.a.y.u.v.u.a.u.u.y.x.x.a.x.x.v.u.y.u.y.a.u.u.y.x.x.u.u.x.u.a.u.v.x.u.x.x.u.u.`         ",
"        <.v.v.y.y.y.x.v.y.x.u.u.y.y.u.u.x.a.u.y.y.y.x.x.u.x.u.u.a.y.x.u.u.u.y.y.u.x.y.a.u.-.        ",
"        7.l.l.v.x.y.x.y.x.a.u.u.u.a.u.u.v.u.u.a.a.u.x.x.y.y.a.u.x.y.x.y.y.y.x.y.u.u.a.y.v.7.        ",
"        3.y.a.a.u.u.y.y.u.x.u.a.v.x.y.x.u.a.y.y.u.u.u.x.x.u.x.u.u.u.y.y.y.y.x.x.x.v.u.y.v.7.        ",
"        <.v.u.v.a.x.u.u.x.y.a.x.u.x.y.a.y.u.x.x.u.x.4.x.a.y.x.x.x.u.x.x.a.y.x.u.y.x.a.x.x.<.        ",
"        } a.l.v.x.u.x.a.x.y.u.x.u.y.x.y.y.x.y.x.u.u.x.x.y.y.y.x.a.x.x.u.y.u.y.a.y.x.y.u.y.}         ",
"        S v.u.u.y.a.u.y.y.y.y.u.x.u.v.u.a.y.x.y.u.u.y.x.x.x.x.x.x.x.a.u.v.a.u.x.x.y.a.y.v.S         ",
"        b a.l.y.y.x.y.y.x.y.y.u.x.a.x.x.y.y.x.y.x.v.a.u.y.u.a.y.u.y.u.u.v.y.u.a.x.y.v.v.3.v         ",
"        f -.a.u.x.x.u.u.a.x.u.x.y.u.a.u.x.y.x.u.a.v.y.y.y.y.y.x.a.u.x.y.y.a.y.y.y.y.x.a.:.f         ",
"        : ^ v.x.u.u.x.a.x.u.x.u.a.u.u.u.y.x.y.x.u.u.x.u.a.x.x.y.x.x.x.u.v.v.y.y.y.x.v.v.^ :         ",
"        % N a.a.l.v.y.y.v.y.v.y.y.x.y.x.x.x.u.y.y.y.y.y.u.y.x.y.a.x.x.y.u.x.y.u.x.v.a.y.b %         ",
"          < v.v.l.v.y.v.y.a.y.l.u.u.x.a.u.a.u.x.x.x.a.x.a.y.u.x.x.v.y.u.u.u.y.a.u.a.x.a.<           ",
"            S y.a.v.y.v.y.v.y.y.x.u.a.y.u.a.v.u.u.x.a.u.u.y.a.y.y.x.y.a.u.v.v.v.v.l.y.A             ",
"            t +.v.v.y.a.y.u.a.y.u.u.u.y.y.y.u.u.x.u.x.x.u.x.u.x.x.x.y.u.u.a.y.a.y.v...t             ",
"            % z x.v.a.v.y.y.x.a.x.x.a.x.a.x.y.a.y.a.x.x.x.y.x.u.y.x.x.x.y.a.y.v.a.y.z %             ",
"              * ' v.u.a.y.x.v.v.y.x.u.u.u.x.y.y.x.v.u.a.y.x.u.u.y.y.x.y.v.u.l.v.y.( *               ",
"                3 Y x.v.y.y.a.u.u.u.v.x.u.u.y.y.u.u.y.y.y.u.u.u.a.y.u.a.u.u.u.a.Y 3                 ",
"                O 8 1.y.x.x.x.u.v.u.a.x.x.u.x.x.u.x.x.x.y.a.y.a.u.y.x.y.y.a.y.3.9 O                 ",
"                    r Q y.a.v.a.y.u.a.u.x.y.a.u.x.y.v.a.u.a.v.y.v.a.l.a.a.l.E 0                     ",
"                    O 5 ( y.v.v.u.u.u.u.x.x.y.y.y.y.v.y.u.u.y.v.v.v.l.y.a.( 3 O                     ",
"                        & h -.y.a.u.x.y.x.x.y.x.a.u.y.x.u.x.u.u.y.y.y.+.z &                         ",
"                          O f P x.x.x.u.a.x.y.y.x.u.u.a.x.x.a.v.v.v.I f %                           ",
"                                7 N Y -.v.v.v.v.y.y.v.a.l.a.+.Y b 5                                 ",
"                                  % ; t C H } -.4.5.:.} I C t ; $                                   ",
"                                                                                                    ",
"                                                                                                    ",
"                                                                                                    ",
"                                                                                                    "
};
